PathFileType	4	(X/Y/Z)	pose_F01_0-94.trc
DataRate	CameraRate	NumFrames	NumMarkers	Units	OrigDataRate	OrigDataStartFrame	OrigNumFrames
30	30	10	21	m	30	56	94
Frame#	Time	CHip			RHip			RKnee			RAnkle			RBigToe			RSmallToe			RHeel			LHip			LKnee			LAnkle			LBigToe			LSmallToe			LHeel			Neck			Nose			RShoulder			RElbow			RWrist			LShoulder			LElbow			LWrist			
		X1	Y1	Z1	X2	Y2	Z2	X3	Y3	Z3	X4	Y4	Z4	X5	Y5	Z5	X6	Y6	Z6	X7	Y7	Z7	X8	Y8	Z8	X9	Y9	Z9	X10	Y10	Z10	X11	Y11	Z11	X12	Y12	Z12	X13	Y13	Z13	X14	Y14	Z14	X15	Y15	Z15	X16	Y16	Z16	X17	Y17	Z17	X18	Y18	Z18	X19	Y19	Z19	X20	Y20	Z20	X21	Y21	Z21	
56	1.8666666666666667	-0.2515766938985938	1.8895191876573427	-0.5781628875100017	-0.2676879808723917	1.8842746965217607	-0.5131638329607173																-0.2322037007279117	1.8947989512705052	-0.6453984223550879	-0.2379408985893471	1.730563896822478	-0.6657106699576036													-0.263359339110541	2.0638727810361757	-0.603165505423158	-0.24511180602849028	2.1397355851686766	-0.5897189952504385	-0.2834317439061451	2.053860159216574	-0.5180860694466267	-1.6572536948426482	1.8771592578202874	0.984018622876489	-1.9176750889228604	1.8975395256848202	1.4762796740536217	-0.23780979278663153	2.073590788709483	-0.6866014711361188	-0.18573732264099674	2.0875823025382862	-0.6646773603236035	-0.21357388374238387	2.1334996173986402	-0.6106411556763612
57	1.9	-0.2495765506782245	1.8893555872846324	-0.5802929345713778	-0.26763137564436773	1.8843119263567225	-0.5131902971138276																-0.23201464185496806	1.8934445105783708	-0.6453084421988539	-0.23780760674156604	1.7326536408613513	-0.6662108497530174													-0.2624027643017018	2.063798353110687	-0.600114143994948	-0.24500825301855864	2.139594424071253	-0.5887382162455682	-0.28247886413051543	2.053472063168231	-0.5149279798225864	-1.6572536948426482	1.8771592578202874	0.984018622876489	-1.9176750889228604	1.8975395256848202	1.4762796740536217	-0.23605709338446043	2.073384221368462	-0.6807052900730961	-0.1847633407659198	2.0935968931090234	-0.6628717378676547	-0.2163049551950207	2.1387003614178957	-0.611384792226857
58	1.9333333333333333	-0.2514133631079934	1.8870135425927437	-0.5776112126156847	-0.26943642888968516	1.8813979249932917	-0.5104782557996315																-0.23409485907533167	1.892156328126445	-0.6427496988252809	-0.23743606838484568	1.7293613792847249	-0.666367238206695													-0.2624101213263713	2.0637055697898123	-0.6000652251565296	-0.24663814133764492	2.144432595268691	-0.5868002120823667	-0.28149897630980536	2.0530944810376104	-0.5118222211341709	-1.6572536948426482	1.8771592578202874	0.984018622876489	-1.9176750889228604	1.8975395256848202	1.4762796740536217	-0.2360638545595654	2.0735127549495282	-0.6806211063570439	-0.1859601737325578	2.097853898088696	-0.6583949084497739	-0.21424959383942116	2.1411073739823845	-0.6147287918717388
59	1.9666666666666666	-0.2511949975834485	1.8883814297597281	-0.5779101978655515	-0.26726074039184344	1.8827192368195715	-0.5127928849406591																-0.23267655120879238	1.8934697203334165	-0.6482289790161793	-0.237871808472077	1.72987176414851	-0.6658727733912548													-0.2613713474256957	2.0624670931716875	-0.596507083209933	-0.24486625341415283	2.141630017572534	-0.5894684139183367	-0.2804060713048687	2.05293203015259	-0.5086278535629905	-1.6572536948426482	1.8771592578202874	0.984018622876489	-1.9176750889228604	1.8975395256848202	1.4762796740536217	-0.23594528972101614	2.0736530666552815	-0.6799315764819682	-0.18590376293895486	2.1003023889134695	-0.6586259276746113	-0.21612073449053132	2.143501350490436	-0.6120786981543038
60	2.0	-0.2512791748452573	1.8892592513964228	-0.578094920191308	-0.267390141301273	1.8836886726039008	-0.5130245193370183																-0.2317767643237415	1.8933630990672765	-0.6452545056234658	-0.23830754855930836	1.7303821490122953	-0.6653783085758147													-0.2613365199868109	2.063573688019824	-0.5965084788752875	-0.24500851663194892	2.1385968181117545	-0.5889861994056664	-0.28140575905281656	2.051930687976529	-0.511365898612363	-1.6572536948426482	1.8771592578202874	0.984018622876489	-1.9176750889228604	1.8975395256848202	1.4762796740536217	-0.237138604910877	2.0749025761214246	-0.6752594056494038	-0.18769227091438065	2.103862645750892	-0.6567702638632631	-0.21316042243127775	2.1438074130520257	-0.6121737819727303
61	2.033333333333333	-0.2512914237833032	1.8859360846441466	-0.5774851398914954	-0.2683093708562436	1.8802599690643085	-0.5071633601823256																-0.23273439666576132	1.8894999605917708	-0.6477543793948025	-0.237949870407584	1.7291114415747924	-0.6656949901296259													-0.2624045673794055	2.062339593977024	-0.5995445443599682	-0.24104937443603075	2.1346665362936617	-0.575305663713657	-0.281564808693429	2.050524208772378	-0.5113761411034347	-1.6572536948426482	1.8771592578202874	0.984018622876489	-1.9176750889228604	1.8975395256848202	1.4762796740536217	-0.23819698027455374	2.073398360058029	-0.6784239220954446	-0.18708667690352754	2.103818231202021	-0.6543196104474439	-0.21110625215440149	2.146104408141714	-0.6147577196168479
62	2.066666666666667	-0.251340656237403	1.886925670770606	-0.5776883580505143	-0.26649880994969066	1.8814147371806897	-0.5095171693512794																-0.23185409714566538	1.8910976814490768	-0.6448959187621909	-0.23759219225585965	1.7278407341372892	-0.6660116716834371													-0.26050354986336755	2.061130383461879	-0.5930014332628215	-0.254328928570306	2.1406133294187737	-0.5746786975482013	-0.2804499532663613	2.0517240137761683	-0.508126608597432	-1.6572536948426482	1.8771592578202874	0.984018622876489	-1.9176750889228604	1.8975395256848202	1.4762796740536217	-0.237285478332261	2.072255052380594	-0.6748907945744472	-0.18614462355434588	2.1050947027187967	-0.6510585069517542	-0.21014227961153215	2.148365517918823	-0.6120627752427382
63	2.1	-0.25117214112852615	1.8882843834028555	-0.5778376869014924	-0.2663157066544215	1.8827955041837248	-0.5096302239668212																-0.2327009843535143	1.8910660636585952	-0.647951488402137	-0.23762029415508704	1.728083214133306	-0.6659529976183975													-0.2623446774312988	2.061339446761249	-0.5989941787540659	-0.2497652699338449	2.1400984853764338	-0.5786959556091713	-0.28247465462814136	2.051934060009933	-0.5143089421456138	-1.6572536948426482	1.8771592578202874	0.984018622876489	-1.9176750889228604	1.8975395256848202	1.4762796740536217	-0.23724839219437904	2.072445625200436	-0.674909842226415	-0.18829039728963212	2.106926530110249	-0.6500577401816392	-0.21597879182010107	2.1486580842891096	-0.6137087832808358
64	2.1333333333333333	-0.25136164980563636	1.8866846946588194	-0.577605585132738	-0.2683392735426199	1.8796472733178964	-0.5071607145199742																-0.23190078310896003	1.8906076249629558	-0.6448247065135793	-0.23764839605431443	1.7283256941293226	-0.665894323553358													-0.2604498288794566	2.0598279645561193	-0.5925011471833561	-0.25398798922453764	2.1402110533436574	-0.5741552675910792	-0.2824036895555281	2.049120672655162	-0.5056710311000047	-1.6572536948426482	1.8771592578202874	0.984018622876489	-1.9176750889228604	1.8975395256848202	1.4762796740536217	-0.23505797063351594	2.071410302043747	-0.6766277267693621	-0.18711049735571908	2.107100102589442	-0.6550981106601373	-0.2118933848704305	2.149824604112613	-0.6177339009024978
65	2.1666666666666665	-0.25033072140941526	1.8855599628794963	-0.5743219721844718	-0.26831454318446957	1.880031455687572	-0.5071366668240048																-0.23179448012119064	1.8897133484465085	-0.6445473435862581	-0.23761997430432313	1.7279481156942549	-0.6659879521704513													-0.2613301130746216	2.058854113456883	-0.5949565083085703	-0.24378875695394192	2.1359708115640084	-0.5759328151406027	-0.28343539228086806	2.049131126877606	-0.5087139716367238	-1.6572536948426482	1.8771592578202874	0.984018622876489	-1.9176750889228604	1.8975395256848202	1.4762796740536217	-0.23511594542694975	2.0713592634768574	-0.6765692538713243	-0.18913646826376032	2.1093895133734963	-0.6533701654822404	-0.21195363763037023	2.149944754361676	-0.618739622122004
